<?xml version="1.0" encoding="UTF-8" standalone="no"?>
<!-- Created with Inkscape (http://www.inkscape.org/) -->

<svg
   width="210mm"
   height="297mm"
   viewBox="0 0 210 297"
   version="1.1"
   id="svg5"
   inkscape:version="1.2.1 (9c6d41e410, 2022-07-14)"
   sodipodi:docname="theDude.svg"
   inkscape:export-filename="theDude.pdf"
   inkscape:export-xdpi="196"
   inkscape:export-ydpi="196"
   xmlns:inkscape="http://www.inkscape.org/namespaces/inkscape"
   xmlns:sodipodi="http://sodipodi.sourceforge.net/DTD/sodipodi-0.dtd"
   xmlns="http://www.w3.org/2000/svg"
   xmlns:svg="http://www.w3.org/2000/svg">
  <sodipodi:namedview
     id="namedview7"
     pagecolor="#ffffff"
     bordercolor="#111111"
     borderopacity="1"
     inkscape:showpageshadow="0"
     inkscape:pageopacity="0"
     inkscape:pagecheckerboard="1"
     inkscape:deskcolor="#d1d1d1"
     inkscape:document-units="mm"
     showgrid="false"
     inkscape:zoom="1.4740319"
     inkscape:cx="299.17941"
     inkscape:cy="564.09904"
     inkscape:window-width="1366"
     inkscape:window-height="750"
     inkscape:window-x="0"
     inkscape:window-y="0"
     inkscape:window-maximized="1"
     inkscape:current-layer="layer1" />
  <defs
     id="defs2" />
  <g
     inkscape:label="Layer 1"
     inkscape:groupmode="layer"
     id="layer1">
    <path
       style="fill:none;stroke:#000000;stroke-width:0.264583px;stroke-linecap:butt;stroke-linejoin:miter;stroke-opacity:1"
       d="m 113.43496,125.94114 c -0.8387,-0.58218 -1.69464,-1.14027 -2.51609,-1.74654 -0.12371,-0.0913 -0.16303,-0.27235 -0.29057,-0.35822 -3.13578,-2.11152 -7.1955,-2.32194 -10.794842,-3.47798 -0.163047,-0.0524 -1.430205,-0.6926 -1.44059,-0.69995 -0.04888,-0.0346 0.05965,-0.17434 0,-0.17968 -2.003039,-0.17928 -4.013385,-0.26963 -6.02243,-0.35936 -1.166246,-0.0521 -2.351114,-0.26401 -3.501602,-0.066 -2.075831,0.3573 -4.059129,1.12751 -6.081741,1.71553 -2.375623,0.69066 -4.816311,1.21486 -7.095361,2.17742 -0.0182,0.008 0.01588,0.0475 0,0.0593 -0.763053,0.5659 -1.632981,1.00017 -2.317197,1.65922 -1.229516,1.18429 -4.256402,5.29666 -5.160263,6.53225 -1.194174,1.63244 -3.127021,4.57657 -3.96235,6.00438 -0.151696,0.25929 -0.172821,0.5758 -0.27645,0.85777 -0.05021,0.13662 -0.122865,0.26393 -0.184296,0.39589 -0.522168,1.93548 -1.097221,3.85746 -1.566505,5.80643 -0.299061,1.24203 -0.737182,2.48348 -0.737182,3.761 0,2.47556 0.654913,4.91582 0.737182,7.39002 0.04113,1.23709 -0.382762,2.4573 -0.368591,3.695 0.02793,2.43989 0.658823,6.22569 1.566505,8.5117 0.370586,0.93333 1.226611,1.62838 1.566522,2.57331 0.63364,1.76148 -0.876578,2.17354 0.276434,4.02493 0.673502,1.08143 1.805725,1.80026 2.764435,2.63929 1.254419,1.09783 2.564797,2.13045 3.870193,3.16714 0.384595,0.30543 0.724553,0.72695 1.19793,0.85777 1.316561,0.36386 2.71295,0.33693 4.054488,0.59384 1.302639,0.24946 2.557296,0.73573 3.870209,0.92375 0.851355,0.12193 1.728168,-0.11765 2.580124,0 3.458244,0.47757 6.865609,1.28068 10.320557,1.78153 1.555787,0.22554 3.138529,0.58218 4.6995,0.39589 3.972231,-0.47406 2.829431,-1.26023 5.344591,-2.90323 1.11357,-0.72742 2.41594,-1.14503 3.5016,-1.91348 1.59882,-1.13167 3.01309,-2.50379 4.51522,-3.76098 0.86301,-0.72228 1.66006,-1.52939 2.58014,-2.17741 7.61679,-5.36458 -2.04712,2.68688 6.35821,-4.94869 0.92713,-0.84222 1.96157,-1.56504 2.85657,-2.44133 2.15363,-2.10859 1.1112,-1.26145 2.02724,-2.57331 0.20481,-0.29331 0.49205,-0.53437 0.64503,-0.85776 1.51028,-3.19279 1.32276,-3.81268 2.58014,-7.32405 0.44018,-1.22926 1.25252,-2.34231 1.47436,-3.62902 0.10208,-0.59207 -0.46077,-1.12183 -0.5529,-1.71554 -0.0944,-0.60855 -0.0776,-1.23656 0,-1.84749 0.32642,-2.57104 0.75042,-0.97408 0.46075,-3.62904 -0.0875,-0.80179 -0.2884,-1.58744 -0.46075,-2.37536 -0.48039,-2.19617 -0.85714,-4.45745 -2.48799,-6.13498 -0.89935,-0.9251 -1.7173,-1.99471 -2.84086,-2.62897 -0.0396,-0.0224 -0.0857,-0.0307 -0.12853,-0.046 -0.75715,-0.3962 -1.54387,-0.7404 -2.27145,-1.18859 -0.95419,-0.58777 -2.00079,-1.09326 -2.76445,-1.91348 -0.17785,-0.19103 0.52172,-0.11663 0.73718,-0.26393 0.0553,-0.0378 -0.0188,-0.1939 -0.0847,-0.1821 -1.25467,0.22461 -0.74708,0.64421 -1.80174,0.19175 -0.0792,-0.034 -0.14967,-0.0907 -0.23333,-0.11139 -0.13677,-0.0338 -0.50084,0.0651 -0.41969,-0.0501 0.27661,-0.39263 0.75837,-0.59212 1.10577,-0.92376 0.0253,-0.0241 -0.0308,-0.0642 -0.0345,-0.0989 -0.008,-0.0761 0,-0.15296 0,-0.22944 0,-0.93521 0.0925,-0.73967 -1.56649,-1.55261 -1.1925,-0.58434 -2.48495,-0.9376 -3.72743,-1.40641 z"
       id="path245" />
    <path
       style="fill:none;stroke:#000000;stroke-width:0.264583px;stroke-linecap:butt;stroke-linejoin:miter;stroke-opacity:1"
       d="m 85.149858,142.02201 c -0.988811,-0.23539 -1.95132,-0.65426 -2.966439,-0.70616 -0.962203,-0.0492 -0.321715,0.63641 -0.639821,0.92093 -0.412313,0.36878 -0.988065,0.53141 -1.379916,0.92187 -0.925533,0.92223 -0.453175,1.24271 -1.248439,2.04623 -0.285506,0.28847 -0.700074,0.43745 -0.959546,0.74955 -0.05557,0.0668 0.144547,0.1105 0.177694,0.19086 0.174456,0.42289 0.377003,0.8473 0.437632,1.30073 0.245099,1.83299 -0.605211,-0.709 -0.737182,1.05573 -0.02389,0.31962 0.385487,0.53419 0.454998,0.84708 0.02569,0.11567 -0.162157,0.18099 -0.201787,0.29267 -0.396364,1.11696 -0.07559,1.24225 1.049936,1.60253 0.121655,0.0389 0.235312,-0.10521 0.36078,-0.12917 0.304787,-0.0582 0.631518,-0.0215 0.921481,-0.13198 0.118205,-0.045 0.114096,-0.24548 0.225663,-0.30509 0.211307,-0.11292 0.501618,-0.0438 0.694155,-0.18641 0.108887,-0.0806 -0.007,-0.30357 0.09216,-0.39589 0.231611,-0.21559 0.568706,-0.28244 0.829337,-0.46188 0.02995,-0.0206 -0.02442,-0.0822 0,-0.10909 0.182028,-0.20078 0.428077,-0.33969 0.598143,-0.5507 0.0866,-0.10744 0.501417,-1.0005 0.724355,-1.09465 0.170987,-0.0722 0.368602,0.044 0.552903,0.066 0.399298,-0.15396 0.827452,-0.2476 1.197898,-0.46188 0.05793,-0.0335 -0.111845,-0.12084 -0.08472,-0.18202 0.06262,-0.14123 0.233476,-0.2085 0.315822,-0.33921 0.0288,-0.0457 0,-0.10809 0,-0.16213 0.111429,-0.21941 0.198303,-0.45314 0.334288,-0.65824 0.09591,-0.14466 0.27935,-0.22479 0.354801,-0.38109 0.05129,-0.10625 -0.07569,-0.26343 0,-0.35392 0.193611,-0.23148 0.552672,-0.28718 0.736438,-0.52655 0.09232,-0.12025 -0.305117,-0.33341 -0.273613,-0.44197 0.03362,-0.11588 0.174538,-0.16664 0.261808,-0.24996 -0.609608,-0.72206 -1.219216,-1.44412 -1.828827,-2.16618 z"
       id="path247" />
    <path
       style="fill:none;stroke:#000000;stroke-width:0.264583px;stroke-linecap:butt;stroke-linejoin:miter;stroke-opacity:1"
       d="m 107.52814,142.89137 c -0.71528,-0.7146 -1.34084,-1.53202 -2.14582,-2.1438 -0.16269,-0.12363 -0.41335,-0.003 -0.61107,0.0486 -0.0368,0.01 0.0726,0.0563 0.0654,0.0936 -0.0126,0.0658 -0.0691,0.11594 -0.11502,0.16471 -0.25472,0.27066 -0.34815,0.68906 -0.64996,0.90597 -0.26801,0.19262 -0.6432,0.15099 -0.95821,0.24949 -0.36859,0.13197 -0.73718,0.26393 -1.10577,0.39589 0,0.0407 0.038,0.10744 0,0.122 -0.52655,0.20189 -1.10275,0.26615 -1.61685,0.49793 -0.0959,0.0433 -0.0648,0.20434 -0.12779,0.28863 -0.0235,0.0314 -0.0935,-5.3e-4 -0.11285,0.0334 -0.14838,0.26091 -0.157427,0.61037 -0.372406,0.81983 -0.14269,0.13902 -0.448861,-0.0294 -0.586584,0.11454 -0.191606,0.20026 -0.182721,0.52334 -0.274082,0.78501 -0.244663,0.14203 -0.521727,0.23908 -0.733991,0.4261 -0.04249,0.0374 0.115932,0.0468 0.138141,0.0989 0.08477,0.19882 0.135081,0.41235 0.170707,0.62552 0.02175,0.13016 0,0.26393 0,0.39589 0.122864,0.10997 0.331211,0.16931 0.368591,0.3299 0.09474,0.40701 -0.04148,0.83784 0,1.25366 0.04743,0.47548 0.319886,0.58375 0.184311,1.05573 -0.05457,0.19 -0.393483,0.3579 -0.282445,0.52144 0.23328,0.3436 0.722122,0.41144 1.069922,0.63841 0.507906,0.33146 -0.558173,1.27651 -0.470199,1.38374 0.165544,0.20179 0.530495,0.10455 0.737185,0.26394 0.21243,0.16381 0.2692,0.47201 0.46075,0.65982 0.24707,0.24227 0.84564,0.42675 1.12216,0.61004 0.0272,0.018 -0.0232,0.075 0,0.0979 0.1788,0.17726 1.02916,-0.1638 1.1138,-0.16956 0.22602,-0.0154 0.46085,0.0588 0.67964,0 0.36003,-0.0967 0.74923,-0.20137 1.02087,-0.45667 0.09,-0.0846 -0.29801,-0.21609 -0.21143,-0.30408 0.79639,-0.80935 1.35147,-0.73504 2.2246,-1.21064 0.10283,-0.056 0.15014,-0.18864 0.25406,-0.24259 0.12458,-0.0647 0.28804,-0.0298 0.40869,-0.1015 0.12411,-0.0738 0.17092,-0.2435 0.29518,-0.31706 0.27363,-0.16199 0.65795,-0.14556 0.87647,-0.37656 0.10114,-0.10691 0.4661,-1.86735 0.52393,-2.04386 0.0293,-0.0895 -0.0738,-0.10995 0,-0.22258 0.12232,-0.18668 0.68323,-0.56591 0.52003,-0.90823 -0.17116,-0.35899 -0.7737,-0.46397 -0.82931,-0.85777 -0.0383,-0.27152 0.4546,-0.31674 0.63418,-0.52396 0.0449,-0.0518 -0.15179,-0.37335 -0.14905,-0.51507 0.001,-0.0731 0.14362,-0.0877 0.14948,-0.16054 0.005,-0.0613 -0.145,-0.0766 -0.12568,-0.13498 0.15348,-0.46372 0.41355,-0.12985 0.15456,-0.4037 -0.56408,-0.59645 -1.12941,-1.19172 -1.69412,-1.78758 z"
       id="path249" />
    <path
       style="fill:none;stroke:#000000;stroke-width:0.264583px;stroke-linecap:butt;stroke-linejoin:miter;stroke-opacity:1"
       d="m 76.870578,166.41787 c 1.80604,0.0457 3.612993,0.0637 5.418121,0.13718 1.63626,0.0666 4.805201,0.91245 5.621025,1.1217 0.596932,0.15311 1.143384,0.48983 1.750801,0.59384 1.993133,0.34129 2.609191,-0.009 4.515221,0.13197 0.2243,0.0166 0.42038,0.18757 0.645056,0.19795 0.736714,0.034 1.475121,-0.0256 2.211517,-0.066 0.03414,-0.002 0.04931,-0.0624 0.08339,-0.0597 0.04257,0.003 0.06198,0.068 0.104179,0.0746 0.500764,0.0783 2.183905,0.2225 2.773839,0.38602 0.565923,0.15686 1.089353,0.4498 1.658673,0.59385 0.0351,0.009 1.25172,-0.0939 1.33427,-0.10051 0.0199,-0.002 -0.0304,-0.0429 -0.0487,-0.0349 -0.3516,0.15396 -0.68872,0.33905 -1.03308,0.50858"
       id="path251" />
  </g>
</svg>
